<?xml version="1.0" standalone="no"?>
<!DOCTYPE svg PUBLIC "-//W3C//DTD SVG 20010904//EN"
 "http://www.w3.org/TR/2001/REC-SVG-20010904/DTD/svg10.dtd">
<svg version="1.0" xmlns="http://www.w3.org/2000/svg"
 width="203.000000pt" height="203.000000pt" viewBox="0 0 203.000000 203.000000"
 preserveAspectRatio="xMidYMid meet">
<metadata>
Created by potrace 1.11, written by Peter Selinger 2001-2013
</metadata>
<g transform="translate(0.000000,203.000000) scale(0.100000,-0.100000)"
fill="#000000" stroke="none">
<path d="M147 2006 c-62 -42 -59 7 -59 -991 0 -998 -3 -949 59 -991 32 -21 35
-21 615 -21 639 0 621 -2 658 60 18 28 20 51 20 202 0 94 4 176 9 184 5 8 33
15 67 18 97 8 170 57 216 146 19 38 22 59 23 202 l1 160 69 48 c39 26 73 55
76 65 10 30 3 242 -9 254 -6 6 -40 11 -75 11 l-63 0 1 47 c2 51 6 58 112 196
75 98 86 123 72 163 -15 41 -53 64 -94 57 -28 -6 -48 -27 -137 -144 -57 -75
-108 -144 -113 -152 -5 -8 -10 -193 -10 -420 -1 -431 -2 -442 -50 -454 -34 -9
-70 -7 -83 6 -9 9 -12 165 -12 643 0 580 -1 633 -18 665 -34 69 -16 67 -662
68 -579 0 -581 0 -613 -22z m1113 -166 c5 -8 10 -115 10 -237 0 -220 0 -223
-22 -237 -19 -12 -101 -14 -495 -13 -346 2 -475 5 -484 14 -8 8 -11 78 -11
239 0 206 1 229 17 241 14 10 120 12 497 10 413 -2 480 -4 488 -17z m-494
-673 c12 -4 25 -17 31 -30 5 -12 9 -120 8 -239 0 -206 -1 -219 -21 -238 -19
-20 -32 -21 -248 -22 -214 -1 -229 0 -247 19 -19 18 -20 33 -20 249 0 227 1
229 23 249 22 19 37 20 238 20 118 -1 224 -4 236 -8z m208 -26 c12 -10 16 -31
16 -77 0 -58 2 -64 27 -76 41 -20 50 -41 30 -72 -15 -23 -24 -26 -71 -26 -75
0 -83 12 -85 132 -2 85 1 100 18 117 21 21 41 22 65 2z m268 2 c16 -15 18 -36
18 -254 0 -203 -2 -240 -16 -253 -17 -18 -42 -20 -64 -6 -12 8 -15 42 -17 197
-1 103 -2 196 -2 205 -1 9 -13 23 -28 30 -35 16 -44 65 -17 85 26 19 104 17
126 -4z m-264 -376 c9 -7 12 -53 12 -167 0 -131 -3 -160 -16 -171 -18 -15
-244 -21 -281 -8 -35 13 -46 43 -24 70 17 21 27 23 114 24 53 0 99 3 102 7 3
3 6 56 6 117 0 97 2 114 19 131 19 19 40 18 68 -3z m-472 -272 c6 -8 11 -55
11 -106 0 -50 5 -95 11 -101 14 -14 610 -14 625 1 6 6 10 43 9 83 0 80 13 108
54 108 36 0 44 -29 44 -154 0 -91 -3 -118 -16 -130 -14 -14 -70 -16 -473 -16
-355 0 -461 3 -468 12 -37 48 -9 88 61 88 54 0 56 5 54 117 -2 66 1 85 16 102
20 22 54 20 72 -4z"/>
<path d="M495 1042 c-107 -4 -100 5 -99 -126 1 -63 4 -122 7 -130 5 -13 27
-16 131 -16 82 0 127 4 132 11 10 16 8 239 -2 249 -11 10 -89 16 -169 12z"/>
</g>
</svg>
