<svg id="Layer_1" data-name="Layer 1" xmlns="http://www.w3.org/2000/svg" viewBox="0 0 85.16 59.71"><defs><style>.cls-1{opacity:0.15;}.cls-2{fill:#9eafc4;}</style></defs><g class="cls-1"><path class="cls-2" d="M41.45,3.86V0h-6V5.15a12.74,12.74,0,0,1,5.86-1.29Z"/><path class="cls-2" d="M49.07,0H44.71V4.23a9.93,9.93,0,0,1,4.36,2.18Z"/><polygon class="cls-2" points="44.71 59.68 49.06 59.68 49.06 45.69 44.71 52.28 44.71 59.68"/><path class="cls-2" d="M61,48.28v11.4h2.92v-7c-.19-.18-.39-.35-.57-.55A10.78,10.78,0,0,1,61,48.28Z"/><path class="cls-2" d="M74.21,59.68h6.05V52.2a11.12,11.12,0,0,1-6.05,3.07Z"/><polygon class="cls-2" points="70.31 4.56 70.31 0 66.72 0 66.72 8.93 69.61 4.56 70.31 4.56"/><rect class="cls-2" y="0.03" width="2.09" height="59.68"/><path class="cls-2" d="M82.43,49.3V59.71h2.73V0H82.43V34.65A15.21,15.21,0,0,1,84,42,15.39,15.39,0,0,1,82.43,49.3Z"/><polygon class="cls-2" points="6.21 26.67 10.02 26.67 10.02 0.03 5.05 0.03 5.05 59.71 10.02 59.71 10.02 32.73 6.21 32.73 6.21 26.67"/><rect class="cls-2" x="13.8" y="0.03" width="2.71" height="26.64"/><rect class="cls-2" x="13.8" y="32.73" width="2.71" height="26.98"/><rect class="cls-2" x="19.2" y="32.73" width="4.84" height="26.98"/><rect class="cls-2" x="19.2" y="0.03" width="4.84" height="26.64"/><path class="cls-2" d="M28.94,17.51q0-6.23,3.36-9.93c.18-.2.37-.37.56-.55v-7H26.74V26.67h1.58v6.06H26.74v27h6.12V27.34a7.67,7.67,0,0,1-.77-.74Q28.94,23.23,28.94,17.51Z"/><path class="cls-2" d="M41.45,47.22V29.94c-.32,0-.63,0-1,0a12.28,12.28,0,0,1-5-1V59.71h6v-4.9h-5Z"/><path class="cls-2" d="M41.05,8.82a5.34,5.34,0,0,0-4.4,2.09,6.77,6.77,0,0,0-1.18,2.39v7.38A7.1,7.1,0,0,0,36.56,23,5.12,5.12,0,0,0,40.91,25l.54,0V8.84Z"/><path class="cls-2" d="M44.71,29.33v13l4.35-6.59v-9A10.79,10.79,0,0,1,44.71,29.33Z"/><path class="cls-2" d="M45.24,22.94c1.06-1.4,1.58-3.44,1.58-6.13a9.89,9.89,0,0,0-1.53-5.87,6.19,6.19,0,0,0-.58-.67V23.54A6.14,6.14,0,0,0,45.24,22.94Z"/><path class="cls-2" d="M52.17,21.32V31l4.5-6.82V0H52.17v11.5a17.94,17.94,0,0,1,.64,5A17.35,17.35,0,0,1,52.17,21.32Z"/><polygon class="cls-2" points="52.17 59.71 56.66 59.71 56.67 34.2 52.17 41.02 52.17 59.71"/><polygon class="cls-2" points="63.93 0.03 61.01 0.03 61.01 17.6 63.93 13.18 63.93 0.03"/><path class="cls-2" d="M63.93,32.69V23.2L61,27.63v9.78a12.09,12.09,0,0,1,2.5-4.31C63.65,33,63.79,32.82,63.93,32.69Z"/><path class="cls-2" d="M76.51,48.49q1.62-2.09,1.62-6.21a9.38,9.38,0,0,0-1.59-5.85,5.07,5.07,0,0,0-2.33-1.75V50.21A5.12,5.12,0,0,0,76.51,48.49Z"/><path class="cls-2" d="M74.21,7.63V29.51a10.68,10.68,0,0,1,6.05,2.42V0H74.21V4.59h2Z"/><path class="cls-2" d="M67.88,36.44a6.84,6.84,0,0,0-1.16,2.34v7.6a6.13,6.13,0,0,0,1.16,2.23,5.36,5.36,0,0,0,2.43,1.69V34.68A5.3,5.3,0,0,0,67.88,36.44Z"/><path class="cls-2" d="M70.31,13.55,66.72,19v11.7a11.76,11.76,0,0,1,3.59-1.1Z"/><path class="cls-2" d="M66.72,59.67h3.59V55.42a11.77,11.77,0,0,1-3.59-.92Z"/></g></svg>