<svg id="Layer_1" data-name="Layer 1" xmlns="http://www.w3.org/2000/svg" viewBox="0 0 54.7 59.67"><defs><style>.cls-1{fill:#9eafc4;opacity:0.15;}</style></defs><path id="Path_28" data-name="Path 28" class="cls-1" d="M54.2,10.19a2.49,2.49,0,0,0-4-3h0l-5.59,7.47a2.43,2.43,0,0,0-.5,1.49V38.54A2.48,2.48,0,0,1,41.65,41H41a1.24,1.24,0,0,1-1.24-1.24V3.73A3.73,3.73,0,0,0,36.05,0H3.73A3.73,3.73,0,0,0,0,3.73H0V55.94a3.73,3.73,0,0,0,3.73,3.73H36.05a3.73,3.73,0,0,0,3.73-3.73v-8.7A1.24,1.24,0,0,1,41,46h.62a7.46,7.46,0,0,0,7.46-7.45V30.91l.07,0,3.72-2.49a1.2,1.2,0,0,0,.56-1V21.13a1.24,1.24,0,0,0-1.24-1.24H49.1V17Zm-43,34.32a1.51,1.51,0,0,1,1.5,1.4V51a.51.51,0,0,0,.42.5h18a.5.5,0,0,0,.49-.43V47a1.5,1.5,0,0,1,3-.11V53a1.49,1.49,0,0,1-1.39,1.49h-26a1.49,1.49,0,0,1-.11-3h2.1a.5.5,0,0,0,.49-.43V46a1.5,1.5,0,0,1,1.49-1.5h0Zm14-8a1.5,1.5,0,0,1,1.49,1.4V46a1.51,1.51,0,0,1-1.4,1.5H18.14a1.5,1.5,0,0,1-.11-3h5.1a.5.5,0,0,0,.49-.42V38a1.5,1.5,0,0,1,1.5-1.49h0Zm8-11a1.51,1.51,0,0,1,1.5,1.4V40a1.5,1.5,0,0,1-3,.11V29.06a.49.49,0,0,0-.5-.49h0a1.5,1.5,0,0,1-.11-3Zm-14-.5a2,2,0,0,1,2,1.86V39a2,2,0,0,1-1.87,2H7.18a2,2,0,0,1-2-1.87V27.07a2,2,0,0,1,1.87-2Zm-2.49,4h-7a.5.5,0,0,0-.49.43v7.06a.49.49,0,0,0,.42.49h7.07a.5.5,0,0,0,.49-.42V29.55a.51.51,0,0,0-.5-.5Zm8.47-3.49A1.49,1.49,0,0,1,26.61,27v3.08a.5.5,0,0,0,.5.5,1.5,1.5,0,0,1,.11,3h-2.1a1.49,1.49,0,0,1-1.49-1.4V27.07a1.5,1.5,0,0,1,1.5-1.5ZM33.55,5a1.24,1.24,0,0,1,1.24,1.25h0V18.65a1.24,1.24,0,0,1-1.24,1.24H6.21A1.25,1.25,0,0,1,5,18.65H5V6.22A1.25,1.25,0,0,1,6.21,5Z"/></svg>