<svg id="Layer_1" data-name="Layer 1" xmlns="http://www.w3.org/2000/svg" viewBox="0 0 58.64 58.64"><defs><style>.cls-1{opacity:0.15;}.cls-2{fill:#9eafc4;}</style></defs><g id="info" class="cls-1"><path id="Path_298" data-name="Path 298" class="cls-2" d="M35,39.63H33.9V24.74a1.14,1.14,0,0,0-1.15-1.15H23.59a1.14,1.14,0,0,0-1.14,1.15h0v4.58a1.14,1.14,0,0,0,1.14,1.14h1.15v9.17H23.59a1.14,1.14,0,0,0-1.14,1.14v4.58a1.15,1.15,0,0,0,1.14,1.15H35a1.15,1.15,0,0,0,1.15-1.15h0V40.77A1.14,1.14,0,0,0,35,39.63ZM33.9,44.21H24.74V41.92h1.14A1.16,1.16,0,0,0,27,40.77h0V29.32a1.16,1.16,0,0,0-1.15-1.15H24.74V25.88h6.87V40.77a1.15,1.15,0,0,0,1.14,1.15H33.9Z"/><path id="Path_299" data-name="Path 299" class="cls-2" d="M29.32,20.73a4.58,4.58,0,1,0-4.58-4.58A4.58,4.58,0,0,0,29.32,20.73Zm0-6.87A2.29,2.29,0,1,1,27,16.15,2.3,2.3,0,0,1,29.32,13.86Z"/><path id="Path_300" data-name="Path 300" class="cls-2" d="M29.32,0C13.52,0,0,13.49,0,29.32a31.25,31.25,0,0,0,4.16,15.5L.06,57.13a1.14,1.14,0,0,0,.72,1.45,1.21,1.21,0,0,0,.73,0l12.3-4.11a31.17,31.17,0,0,0,15.51,4.17c15.8,0,29.32-13.5,29.32-29.32S45.14,0,29.32,0Zm0,56.35a28.69,28.69,0,0,1-14.75-4.1,1.15,1.15,0,0,0-1-.12L3,55.68,6.5,45a1.13,1.13,0,0,0-.12-1A28.65,28.65,0,0,1,2.29,29.32a27.39,27.39,0,0,1,27-27,27.39,27.39,0,0,1,27,27A27.39,27.39,0,0,1,29.32,56.35Z"/></g></svg>