<svg id="Layer_1" data-name="Layer 1" xmlns="http://www.w3.org/2000/svg" viewBox="0 0 66.28 17.07"><defs><style>.cls-1{fill:#f02828;}.cls-2{fill:#272a2c;}</style></defs><path id="Path_28" data-name="Path 28" class="cls-1" d="M15.51,2.92a.71.71,0,0,0-1.14-.86h0L12.77,4.2a.71.71,0,0,0-.14.43V11a.71.71,0,0,1-.71.71h-.18a.36.36,0,0,1-.36-.36V1.07A1.06,1.06,0,0,0,10.32,0H1.07A1.07,1.07,0,0,0,0,1.07H0V16a1.06,1.06,0,0,0,1.07,1.06h9.25A1.06,1.06,0,0,0,11.38,16V13.52a.36.36,0,0,1,.36-.36h.18A2.13,2.13,0,0,0,14.05,11V8.85l0,0,1.07-.71a.35.35,0,0,0,.16-.3V6.05a.36.36,0,0,0-.36-.36h-.89V4.86ZM3.2,12.74a.43.43,0,0,1,.43.4V14.6a.14.14,0,0,0,.12.14H8.9A.15.15,0,0,0,9,14.61V13.45A.43.43,0,0,1,9.47,13a.43.43,0,0,1,.43.4v1.74a.44.44,0,0,1-.4.43H2.06a.43.43,0,0,1,0-.86h.6a.14.14,0,0,0,.14-.12V13.17a.43.43,0,0,1,.43-.43h0Zm4-2.28a.42.42,0,0,1,.43.4v2.31a.44.44,0,0,1-.4.43h-2a.44.44,0,0,1-.42-.44.43.43,0,0,1,.39-.42H6.62a.14.14,0,0,0,.14-.12V10.88a.42.42,0,0,1,.43-.42ZM9.47,7.32a.43.43,0,0,1,.43.4v3.74a.44.44,0,0,1-.44.42A.43.43,0,0,1,9,11.49V8.32a.15.15,0,0,0-.14-.15h0a.43.43,0,0,1,0-.85Zm-4-.14a.57.57,0,0,1,.57.53v3.46a.58.58,0,0,1-.54.57H2.06a.57.57,0,0,1-.57-.54V7.75A.57.57,0,0,1,2,7.18ZM4.76,8.32h-2a.14.14,0,0,0-.14.12v2a.15.15,0,0,0,.12.14h2a.14.14,0,0,0,.14-.12v-2a.15.15,0,0,0-.15-.15Zm2.43-1a.42.42,0,0,1,.42.4V8.6a.15.15,0,0,0,.15.14.43.43,0,0,1,.43.43.44.44,0,0,1-.4.43h-.6a.44.44,0,0,1-.43-.4V7.75a.43.43,0,0,1,.43-.43ZM9.6,1.42a.36.36,0,0,1,.36.36h0V5.34a.36.36,0,0,1-.36.35H1.78a.36.36,0,0,1-.36-.35h0V1.78a.36.36,0,0,1,.36-.36Z"/><g id="Group_20" data-name="Group 20"><path id="Path_29" data-name="Path 29" class="cls-2" d="M23.33,13.25a2.24,2.24,0,0,0,2.21-1.42h.08v1.32h1.94V5.86h-2v4.19a1.39,1.39,0,0,1-1.25,1.49h-.14a1.26,1.26,0,0,1-1.28-1.22c0-.06,0-.12,0-.18V5.86h-2v4.65A2.45,2.45,0,0,0,23,13.23Zm7.87-.1V8.94a1.35,1.35,0,0,1,1.19-1.49h.19a1.25,1.25,0,0,1,1.31,1.19,1,1,0,0,1,0,.24v4.28h2V8.51a2.46,2.46,0,0,0-2.16-2.73,2.6,2.6,0,0,0-2.55,1.37H31.1V5.86H29.17v7.29Zm7.31-8.23a1.07,1.07,0,0,0,1.1-1,1.1,1.1,0,0,0-2.19,0A1.05,1.05,0,0,0,38.51,4.92Zm1,8.23V5.86h-2v7.29Z"/><path id="Path_30" data-name="Path 30" class="cls-1" d="M43.22,13.15V10H45c2.23,0,3.53-1.33,3.53-3.27a3.17,3.17,0,0,0-3-3.31,2.36,2.36,0,0,0-.46,0H41.16v9.72Zm1.4-4.8h-1.4V5.11H44.6A1.54,1.54,0,0,1,46.35,6.4a1.83,1.83,0,0,1,0,.33,1.54,1.54,0,0,1-1.45,1.63A1,1,0,0,1,44.62,8.35Zm5.76,4.8.72-2.21h3.51l.72,2.21h2.2L54.18,3.43H51.53l-3.36,9.72h2.21Zm3.71-3.82H51.62l1.2-3.68h.07Zm8.64,3.82V9.72l3.55-6.29H64L61.76,7.62h-.09L59.45,3.43h-2.3L60.7,9.72v3.43h2Z"/></g></svg>